<?xml version="1.0" standalone="no"?><!DOCTYPE svg PUBLIC "-//W3C//DTD SVG 1.1//EN" "http://www.w3.org/Graphics/SVG/1.1/DTD/svg11.dtd"><svg t="1716959601603" class="icon" viewBox="0 0 1024 1024" version="1.1" xmlns="http://www.w3.org/2000/svg" p-id="7155" width="128" height="128" xmlns:xlink="http://www.w3.org/1999/xlink"><path d="M767.28 180.96H618.96a42.88 42.88 0 0 0-42.24 30.8c4.56 0.4 8.88 1.04 13.2 1.04h176A15.28 15.28 0 0 1 784 226.4a128.72 128.72 0 0 1 0.8 59.2 16 16 0 0 0 6.24 17.12 484.32 484.32 0 0 1 152 251.12c28.4 115.92 14 227.36-38.08 333.92a702.4 702.4 0 0 1-44 71.04 37.92 37.92 0 0 1-35.76 17.2c-33.92-0.8-67.84 0-101.68 0-30 0-41.52-16.64-32-45.2a612.48 612.48 0 0 0 26.08-268c-4-31.36-11.92-62.24-18.16-93.36a14.4 14.4 0 0 0-2.24-5.84 25.76 25.76 0 0 0-5.2-3.6c-0.96 1.68-2.64 3.28-2.72 5.04a77.76 77.76 0 0 0 0.72 10.96c12.8 116.88-1.6 229.76-50.32 337.44-6.88 15.2-16 29.44-23.52 44.32a31.36 31.36 0 0 1-29.84 18.24H433.28c-20.56 0-30.64-10-32-30.88a679.44 679.44 0 0 0-27.68-165.2c-14.32-45.6-30.4-90.56-45.76-136a592 592 0 0 1-34-216 311.2 311.2 0 0 1 39.28-134.48 543.52 543.52 0 0 1 208.8-218.8A254.72 254.72 0 0 1 600 51.04c29.44-8 56.56 0.72 80.96 18.16a262.48 262.48 0 0 1 74.48 88c3.6 6.88 6.88 14.08 11.84 23.76z m-148.56 144a211.2 211.2 0 0 1 151.44-2.32 56 56 0 0 0-25.04-45.44 41.12 41.12 0 0 1-8-9.84c-4.16-6.08-6.8-14.56-12.48-18a57.04 57.04 0 0 0-60.64-0.24A26.8 26.8 0 0 0 652.32 264a25.2 25.2 0 0 1-10.64 15.36 51.44 51.44 0 0 0-22.96 45.92z m147.52 24c-0.8-1.2-1.04-2-1.6-2.32a13.44 13.44 0 0 0-3.52-2.16 183.52 183.52 0 0 0-132.88 1.76c-5.52 2.16-6.08 6.24-2.48 9.76 8.56 8 16.64 19.12 27.12 23.12a132.64 132.64 0 0 0 79.28 1.84 48.56 48.56 0 0 0 34.08-31.36zM225.76 976H140.88a36.08 36.08 0 0 1-36-21.52 311.44 311.44 0 0 1-29.44-205.2 303.12 303.12 0 0 1 78.4-152 288.72 288.72 0 0 1 77.2-58.4c13.12-6.8 21.92-2.8 24 11.84 12.16 74 39.28 144 61.44 214.8 17.6 56 30.88 113.68 30.56 173.28 0 26.08-10.88 37.04-36.8 37.12-27.92 0.08-56.24 0.08-84.48 0.08z" p-id="7156" fill="#d81e06"></path><path d="M675.12 280.88c-2.8-3.84-7.12-7.28-8-11.52a8 8 0 0 1 9.6-10.4 14.4 14.4 0 0 1 9.84 9.2c0 4.08-4.56 8.48-7.2 12.64zM723.68 270.96c-4.16 2.8-8 8-12.32 8a13.76 13.76 0 0 1-9.28-9.84 13.28 13.28 0 0 1 9.12-9.6c3.92 0 8 4.4 12.48 6.88z" p-id="7157" ></path></svg>