<?xml version="1.0" standalone="no"?>
<svg viewBox="0 0 1024 1024" version="1.1" xmlns="http://www.w3.org/2000/svg" width="32" height="32" xmlns:xlink="http://www.w3.org/1999/xlink">
    <path d="M0 0h1024v1024H0v-228.352c114.2784-1.3824 228.608 0.0512 342.8864-0.7168 57.4464-86.1696 112.7936-173.7728 169.3184-260.5056 56.576 86.5792 111.6672 174.2336 169.0112 260.352 113.8688 0 227.7376 0.7168 341.5552-0.4096-56.5248-86.6304-113.7664-172.8-171.3664-258.7136-112.4352-1.3824-224.9728 0.8704-337.408-1.0752 53.8112-87.552 113.7152-171.3152 168.7552-258.1504-55.9616-88.0128-113.408-175.104-170.3936-262.5024C455.5264 101.4272 397.9264 188.4672 341.8112 276.48c55.3984 86.4256 114.7392 170.3936 169.0112 257.4848-112.7936 2.048-225.6896-0.512-338.4832 1.2288C113.92 620.1344 60.16 708.3008 0 792.0128V0m64.5632 881.0496c-0.512 42.9056-0.4608 85.8624 0 128.8192 8.8064-0.1536 17.664-0.256 26.5216-0.4096 0.1536-27.648-0.8704-55.2448 0.3584-82.8416 12.6976 19.0464 19.1488 41.3184 30.6176 61.0816 11.1616-19.5584 16.6912-42.3424 30.8224-60.0576 0.1024 27.3408-0.8192 54.6816-0.1024 82.0736 9.0112-0.0512 18.0736-0.0512 27.0848-0.1024 0.2048-42.752 0.3072-85.504-0.0512-128.256-10.1376 0-20.3264 0-30.464-0.0512-9.6768 18.0736-17.92 36.864-27.2896 55.0912-9.728-17.8176-18.0224-36.3008-26.5728-54.6816-10.2912-0.3584-20.5824-0.4608-30.9248-0.6656m136.3456 0.1536c0.2048 42.7008 0.2048 85.4528 0 128.2048 8.8576 0.2048 17.7664 0.3584 26.624 0.512 0.4096-43.0592 0.6656-86.1696-0.1024-129.2288-8.8576 0.2048-17.7152 0.3584-26.5216 0.512m39.7312 0.3072c-0.1024 6.7072-0.1536 13.4656-0.2048 20.1728 9.9328 0.3072 19.8656 0.512 29.7984 0.768-0.2048 35.7376-0.4096 71.5264 0 107.264h28.928c0.4096-35.6864 0.256-71.424-0.0512-107.1616 9.6768-0.3584 19.4048-0.6144 29.1328-0.9216l-0.1536-20.1728c-29.1328-0.1536-58.3168-0.256-87.4496 0.0512m99.7376 29.7984c-2.6624 24.2688 23.0912 35.6352 41.4208 43.6736 10.24 5.376 30.1568 11.6736 23.2448 26.9312-10.9056 12.2368-33.6896 10.3424-39.2192-6.0928-3.9424-13.9776-19.4048-8.6016-29.952-9.1136-3.0208 48.0256 68.8128 61.3376 93.184 25.8048 7.3216-11.264 6.5024-26.7776-2.2528-36.9664-15.2064-17.6128-40.8064-19.8656-57.3952-35.5328-8.0896-11.4176 9.0112-20.4288 18.7392-17.8176 12.3904-0.512 12.5952 15.8208 22.1696 19.7632 7.0144 0.2048 13.9776 0.2048 20.992-0.0512 0.512-17.6128-9.728-35.7888-27.6992-39.9872-23.9616-8.704-58.4704 1.5872-63.232 29.3888m110.592-30.0544c0.4096 33.6896-1.1264 67.5328 0.768 101.1712 10.752 41.216 82.688 39.0656 93.1328-1.4336 2.304-33.024 0.1024-66.2528 1.1776-99.328-8.4992-0.256-16.9984-0.4608-25.4976-0.6656-1.536 31.5904 0.7168 63.232-0.9728 94.8224-5.7856 20.3264-46.1824 14.6944-42.9568-8.0896-0.1024-28.8256 0.6144-57.6512-1.024-86.4256-8.192 0-16.4352 0-24.6272-0.0512m115.8656 0.0512c-0.4608 42.752-0.3072 85.4528-0.0512 128.2048 22.6304-0.1536 45.4144 1.4848 68.0448-0.7168 19.2512-1.8432 32.1536-21.4528 29.3376-39.936-0.2048-12.4416-11.008-19.712-19.456-26.9312 16.9472-12.4928 21.1968-40.3456 2.4576-53.248-24.2176-13.824-53.8112-4.8128-80.3328-7.3728m113.8688-0.1024c-0.6656 42.8032-0.4096 85.6064-0.1536 128.4608 9.0624 0 18.1248 0 27.1872 0.0512 0.3072-43.008 0.3072-86.016 0-128.9728-9.0112 0.1536-18.0224 0.256-27.0336 0.4608m44.9536 40.1408c9.3696 30.3616 49.3056 28.16 65.9456 51.5072 1.4848 13.8752-17.152 19.968-28.0064 15.872-11.4176-2.6624-11.9808-17.1008-21.0944-22.3232-7.5264-0.1536-15.0016 0-22.4768 0.4096-1.536 46.2848 64.512 60.5696 91.392 28.9792 9.5744-11.2128 9.728-29.6448-0.2048-40.704-15.2576-17.408-41.0112-19.2512-57.0368-35.5328-6.9632-11.3152 8.2944-19.456 18.0736-17.5104 12.3904-0.8192 13.4656 14.5408 22.0672 19.9168 7.1168 0.256 14.2848 0.256 21.4016 0 1.5872-19.712-12.5952-38.8096-32.512-41.4208-25.6-7.7824-63.3344 10.1888-57.5488 40.8064m108.1856-40.0384c-0.1536 42.8032 0.1024 85.6064-0.1536 128.4096 9.1136 0 18.2272-0.0512 27.3408-0.0512 0.2048-18.7392 0.1536-37.4784-0.0512-56.2176 18.0736-0.256 36.1984-0.3072 54.272 0.1024-0.2048 18.7392-0.3584 37.4784 0.1536 56.2688 8.4992-0.1024 17.0496-0.1536 25.5488-0.256-0.4096-42.7008-0.4096-85.4016 0-128.1024-8.6016-0.1024-17.2032-0.1536-25.8048-0.3072-0.512 16.2816-0.4608 32.6144-0.1024 48.896-18.0224 0.3584-36.0448 0.3584-54.0672 0.0512 0.2048-16.2816 0.2048-32.5632 0.0512-48.7936h-27.1872m127.8976-0.2048c-0.256 42.8544-0.256 85.7088-0.0512 128.6144 9.1136 0 18.2272-0.0512 27.3408-0.0512 0.256-42.9056 0.256-85.8112 0-128.7168l-27.2896 0.1536z" fill="#FFFFFF" p-id="6134"></path><path d="M594.8416 902.8096c12.3392 1.0752 33.4336-3.072 36.1984 13.7728-1.1264 15.6672-19.3024 13.824-30.464 16.896 0.0512 6.144 0.1024 12.3392 0.1024 18.5344 13.568 2.0992 36.3008 1.28 35.7888 20.736-2.6624 20.1728-27.4432 15.872-41.984 15.6672-0.256-28.5696-1.024-57.088 0.3584-85.6064z" fill="#FFFFFF" p-id="6135"></path><path d="M341.8112 276.48c56.1152-88.0128 113.7152-175.0528 170.5472-262.5536 56.9856 87.3984 114.432 174.4896 170.3936 262.5024-55.04 86.8352-114.944 170.5984-168.7552 258.1504 112.4352 1.9456 224.9728-0.3072 337.408 1.0752 57.6 85.9136 114.8416 172.0832 171.3664 258.7136-113.8176 1.1264-227.6864 0.4096-341.5552 0.4096-57.344-86.1184-112.4352-173.7728-169.0112-260.352-56.5248 86.7328-111.872 174.336-169.3184 260.5056-114.2784 0.768-228.608-0.6656-342.8864 0.7168v-3.6352c60.16-83.712 113.92-171.8784 172.3392-256.8192 112.7936-1.7408 225.6896 0.8192 338.4832-1.2288C456.5504 446.8736 397.2096 362.9056 341.8112 276.48z" fill="#FE0000" p-id="6136"></path><path d="M64.5632 881.0496c10.3424 0.2048 20.6336 0.3072 30.9248 0.6656 8.5504 18.3808 16.8448 36.864 26.5728 54.6816 9.3696-18.2272 17.6128-37.0176 27.2896-55.0912 10.1376 0.0512 20.3264 0.0512 30.464 0.0512 0.3584 42.752 0.256 85.504 0.0512 128.256-9.0112 0.0512-18.0736 0.0512-27.0848 0.1024-0.7168-27.392 0.2048-54.7328 0.1024-82.0736-14.1312 17.7152-19.6608 40.4992-30.8224 60.0576-11.4688-19.7632-17.92-42.0352-30.6176-61.0816-1.2288 27.5968-0.2048 55.1936-0.3584 82.8416-8.8576 0.1536-17.7152 0.256-26.5216 0.4096-0.4608-42.9568-0.512-85.9136 0-128.8192zM200.9088 881.2032c8.8064-0.1536 17.664-0.3072 26.5216-0.512 0.768 43.0592 0.512 86.1696 0.1024 129.2288-8.8576-0.1536-17.7664-0.3072-26.624-0.512 0.2048-42.752 0.2048-85.504 0-128.2048zM240.64 881.5104c29.1328-0.3072 58.3168-0.2048 87.4496-0.0512l0.1536 20.1728c-9.728 0.3072-19.456 0.5632-29.1328 0.9216 0.3072 35.7376 0.4608 71.4752 0.0512 107.1616h-28.928c-0.4096-35.7376-0.2048-71.5264 0-107.264-9.9328-0.256-19.8656-0.4608-29.7984-0.768 0.0512-6.7072 0.1024-13.4656 0.2048-20.1728zM340.3776 911.3088c4.7616-27.8016 39.2704-38.0928 63.232-29.3888 17.9712 4.1984 28.2112 22.3744 27.6992 39.9872-7.0144 0.256-13.9776 0.256-20.992 0.0512-9.5744-3.9424-9.7792-20.2752-22.1696-19.7632-9.728-2.6112-26.8288 6.4-18.7392 17.8176 16.5888 15.6672 42.1888 17.92 57.3952 35.5328 8.7552 10.1888 9.5744 25.7024 2.2528 36.9664-24.3712 35.5328-96.2048 22.2208-93.184-25.8048 10.5472 0.512 26.0096-4.864 29.952 9.1136 5.5296 16.4352 28.3136 18.3296 39.2192 6.0928 6.912-15.2576-13.0048-21.5552-23.2448-26.9312-18.3296-8.0384-44.0832-19.4048-41.4208-43.6736zM450.9696 881.2544c8.192 0.0512 16.4352 0.0512 24.6272 0.0512 1.6384 28.7744 0.9216 57.6 1.024 86.4256-3.2256 22.784 37.1712 28.416 42.9568 8.0896 1.6896-31.5904-0.5632-63.232 0.9728-94.8224 8.4992 0.2048 16.9984 0.4096 25.4976 0.6656-1.0752 33.0752 1.1264 66.304-1.1776 99.328-10.4448 40.4992-82.3808 42.6496-93.1328 1.4336-1.8944-33.6384-0.3584-67.4816-0.768-101.1712zM566.8352 881.3056c26.5216 2.56 56.1152-6.4512 80.3328 7.3728 18.7392 12.9024 14.4896 40.7552-2.4576 53.248 8.448 7.2192 19.2512 14.4896 19.456 26.9312 2.816 18.4832-10.0864 38.0928-29.3376 39.936-22.6304 2.2016-45.4144 0.5632-68.0448 0.7168-0.256-42.752-0.4096-85.4528 0.0512-128.2048m28.0064 21.504c-1.3824 28.5184-0.6144 57.0368-0.3584 85.6064 14.5408 0.2048 39.3216 4.5056 41.984-15.6672 0.512-19.456-22.2208-18.6368-35.7888-20.736 0-6.1952-0.0512-12.3904-0.1024-18.5344 11.1616-3.072 29.3376-1.2288 30.464-16.896-2.7648-16.8448-23.8592-12.6976-36.1984-13.7728zM680.704 881.2032c9.0112-0.2048 18.0224-0.3072 27.0336-0.4608 0.3072 42.9568 0.3072 85.9648 0 128.9728-9.0624-0.0512-18.1248-0.0512-27.1872-0.0512-0.256-42.8544-0.512-85.6576 0.1536-128.4608zM725.6576 921.344c-5.7856-30.6176 31.9488-48.5888 57.5488-40.8064 19.9168 2.6112 34.0992 21.7088 32.512 41.4208-7.1168 0.256-14.2848 0.256-21.4016 0-8.6016-5.376-9.6768-20.736-22.0672-19.9168-9.7792-1.9456-25.0368 6.1952-18.0736 17.5104 16.0256 16.2816 41.7792 18.1248 57.0368 35.5328 9.9328 11.0592 9.7792 29.4912 0.2048 40.704-26.88 31.5904-92.928 17.3056-91.392-28.9792 7.4752-0.4096 14.9504-0.5632 22.4768-0.4096 9.1136 5.2224 9.6768 19.6608 21.0944 22.3232 10.8544 4.096 29.4912-1.9968 28.0064-15.872-16.64-23.3472-56.576-21.1456-65.9456-51.5072zM833.8432 881.3056h27.1872c0.1536 16.2304 0.1536 32.512-0.0512 48.7936 18.0224 0.3072 36.0448 0.3072 54.0672-0.0512-0.3584-16.2816-0.4096-32.6144 0.1024-48.896 8.6016 0.1536 17.2032 0.2048 25.8048 0.3072-0.4096 42.7008-0.4096 85.4016 0 128.1024-8.4992 0.1024-17.0496 0.1536-25.5488 0.256-0.512-18.7904-0.3584-37.5296-0.1536-56.2688-18.0736-0.4096-36.1984-0.3584-54.272-0.1024 0.2048 18.7392 0.256 37.4784 0.0512 56.2176-9.1136 0-18.2272 0.0512-27.3408 0.0512 0.256-42.8032 0-85.6064 0.1536-128.4096zM961.7408 881.1008l27.2896-0.1536c0.256 42.9056 0.256 85.8112 0 128.7168-9.1136 0-18.2272 0.0512-27.3408 0.0512-0.2048-42.9056-0.2048-85.76 0.0512-128.6144z"  ></path>
</svg>