<?xml version="1.0" standalone="no"?>
<svg t="1721879835888" class="icon" viewBox="0 0 1024 1024" version="1.1" xmlns="http://www.w3.org/2000/svg" 
p-id="4271" width="32" height="32" xmlns:xlink="http://www.w3.org/1999/xlink">
<path d="M227.14123 413.647995c-52.14973 0-94.587262 42.439578-94.587262 94.587262 0 52.14973 42.437531 94.587262 94.587262 94.587262 52.147684 0 94.587262-42.437531 94.587262-94.587262C321.728492 456.087573 279.288914 413.647995 227.14123 413.647995z" fill="#272636" p-id="4272"></path><path d="M510.903016 413.647995c-52.14973 0-94.587262 42.439578-94.587262 94.587262 0 52.14973 42.437531 94.587262 94.587262 94.587262 52.147684 0 94.587262-42.437531 94.587262-94.587262C605.490278 456.087573 563.051723 413.647995 510.903016 413.647995z" fill="#272636" p-id="4273"></path><path d="M794.665825 413.647995c-52.14973 0-94.587262 42.439578-94.587262 94.587262 0 52.14973 42.437531 94.587262 94.587262 94.587262 52.147684 0 94.587262-42.437531 94.587262-94.587262C889.253086 456.087573 846.813508 413.647995 794.665825 413.647995z"
 fill="#aaaaaa" p-id="4274"></path></svg>