<?xml version="1.0" encoding="utf-8"?>
<svg version="1.1"  xmlns="http://www.w3.org/2000/svg" xmlns:xlink="http://www.w3.org/1999/xlink" x="0px" y="0px"
	 width="42px" height="42px" viewBox="0 0 42 42" enable-background="new 0 0 42 42" xml:space="preserve">
<path fill="#010101" d="M29.664,2.6H12.316c-1.149,0-2.21,0.616-2.78,1.614l-8.672,15.2c-0.561,0.983-0.561,2.189,0,3.172
	l8.672,15.2c0.569,0.998,1.63,1.614,2.78,1.614h17.348c1.147-0.001,2.207-0.616,2.775-1.612l8.694-15.2
	c0.563-0.984,0.563-2.192,0-3.176l-8.694-15.2C31.871,3.216,30.812,2.601,29.664,2.6z M12.316,5.8h17.348L38.355,21l-8.691,15.2
	H12.316L3.64,21l8.674-15.2H12.316z"/>
<path fill="#0062a7" d="M30.227,25.917c-0.73,1.74-1.908,3.099-3.541,4.089c-1.591,0.974-3.416,1.484-5.272,1.479
	c-1.687,0.011-3.347-0.429-4.813-1.276c-1.494-0.846-2.694-2.062-3.601-3.647c-0.905-1.585-1.364-3.422-1.364-5.521
	c0-2.121,0.412-3.969,1.212-5.543c0.812-1.574,1.906-2.778,3.294-3.612c1.388-0.834,2.941-1.252,4.659-1.252
	c1.766,0,3.377,0.453,4.836,1.359c1.459,0.906,2.575,2.169,3.352,3.791c0.638,1.312,0.954,3.588,0.954,6.831H15.978
	c0.165,1.597,0.776,2.825,1.835,3.695c1.059,0.87,2.259,1.312,3.601,1.312c0.965,0,1.917-0.273,2.859-0.835
	c0.942-0.56,1.637-1.287,2.081-2.193L30.227,25.917z M17.777,15.854c-0.847,0.751-1.399,1.836-1.659,3.23h9.39
	c-0.282-1.406-0.837-2.479-1.684-3.23c-0.835-0.751-1.835-1.121-3.012-1.121C19.626,14.734,18.625,15.104,17.777,15.854z"/>
</svg>
