<?xml version="1.0" encoding="utf-8"?>
<svg version="1.1"   xmlns="http://www.w3.org/2000/svg" xmlns:xlink="http://www.w3.org/1999/xlink" x="0px" y="0px"
	 width="50px" height="50px" viewBox="0 0 50 50" enable-background="new 0 0 50 50" xml:space="preserve"  fill="#000000">
<path fill="#010101" d="M10.119,10.041l18.205-8.716c0.584-0.433,1.389-0.433,1.976,0c0.651,0.432,1.092,0.865,1.092,1.746v43.538
	c0,0.865,0,1.077-0.22,1.519c-0.221,0.22-0.433,0.652-0.651,0.652C30.079,49,29.638,49,28.756,49H7.508c-0.874,0-1.093,0-1.526-0.22
	c-0.22-0.221-0.653-0.433-0.653-0.652c-0.221-0.433-0.221-0.653-0.221-1.51V19.173c0-2.4,0.221-3.053,0.433-4.129
	c0.221-0.865,0.662-1.747,1.314-2.399C7.499,11.991,8.161,11.346,10.119,10.041z M13.85,22.886c0,1.306,0.882,2.179,1.764,2.179
	h5.266c0.873,0,1.763-0.865,1.763-2.179c0-1.306-0.882-2.179-1.763-2.179h-5.266C14.732,20.707,13.85,21.572,13.85,22.886z
	 M14.079,29.423c-0.221,0.712-0.221,1.476,0,2.179c0.229,0.645,0.839,1.077,1.526,1.086h5.266c0.874,0,1.764-0.865,1.764-2.178
	c0-1.299-0.883-2.18-1.764-2.18h-5.266v0.018C14.953,28.348,14.52,28.778,14.079,29.423z M13.85,38.131
	c0,1.314,0.882,2.179,1.764,2.179h5.266c0.873,0,1.763-0.864,1.763-2.179s-0.882-2.179-1.763-2.179h-5.266
	C14.732,35.952,13.85,36.816,13.85,38.131z"/>
<path fill="#010101" d="M37.841,12.642c-0.541-0.475-1.287-0.636-1.975-0.433c-0.653,0.221-1.093,0.874-1.093,1.747V46.61
	c0,0.865,0,1.086,0.221,1.518c0.219,0.433,0.431,0.433,0.651,0.653C35.866,49,36.299,49,36.952,49h4.392
	c0.881,0,1.093,0,1.313-0.219l0.653-0.653c0.221-0.212,0.221-0.652,0.221-1.518V23.314c0-1.967,0-2.61-0.221-3.263
	c-0.221-0.644-0.433-1.297-0.873-1.967c-0.433-0.653-0.651-1.085-1.976-2.611L37.841,12.642z"/>
</svg>
