<?xml version="1.0" encoding="utf-8"?> 
<svg version="1.1" xmlns="http://www.w3.org/2000/svg" xmlns:xlink="http://www.w3.org/1999/xlink" x="0px" y="0px"
	 width="50px" height="50px" viewBox="0 0 50 50" enable-background="new 0 0 50 50" xml:space="preserve" >
<path   d="M6.119,31.857v-6.676L1,24.383V49l5.122-1.748v-10.78h8.16l3.518-5.403l-4.481-2.709l-2.078,3.658H6.119
	V31.86V31.857z M49,25.181L12.359,1H8.2l-5.76,9.065v3.024l32.801,21.315l2.719-0.318L49,25.178V25.181z M2.44,14.996v4.772
	l33.121,21h3.041l1.439-1.594l1.439-4.611c-2.774,2.014-4.268,3.021-4.48,3.021c-0.96-0.743-12.48-8.271-34.56-22.584V14.996z"/>
</svg>
