<?xml version="1.0" encoding="utf-8"?> 
<svg version="1.1" xmlns="http://www.w3.org/2000/svg" xmlns:xlink="http://www.w3.org/1999/xlink" x="0px" y="0px"
    height="50px" viewBox="0 0 50 50" enable-background="new 0 0 50 50" xml:space="preserve"  >
<path  d="M32.704,25.881c5.353,0,9.688,4.337,9.688,9.691c0,2.169-0.716,4.178-1.921,5.795l-0.035,0.048l5.137,5.138
	c0.164,0.164,0.171,0.432,0.01,0.603l-0.01,0.014l-1.71,1.708C43.78,48.958,43.668,49,43.557,49c-0.105,0-0.21-0.034-0.297-0.113
	l-0.013-0.01l-5.214-5.216c-1.53,1.009-3.359,1.599-5.329,1.599c-5.35,0-9.686-4.34-9.686-9.688
	C23.018,30.218,27.354,25.881,32.704,25.881z M41.293,1c0.972,0,1.761,0.789,1.761,1.762v26.1c-2.198-3.387-6.008-5.622-10.35-5.622
	c-6.813,0-12.329,5.516-12.329,12.333c0,6.012,4.302,11.021,10,12.109H6.063c-0.973,0-1.761-0.79-1.761-1.762V2.762
	C4.301,1.789,5.089,1,6.063,1H41.293z M32.704,29.403c-3.405,0-6.162,2.759-6.162,6.169c0,3.403,2.757,6.162,6.162,6.162
	c3.408,0,6.169-2.759,6.169-6.162C38.873,32.162,36.112,29.403,32.704,29.403z M22.357,17.295H12.228
	c-0.242,0-0.44,0.197-0.44,0.439v2.643c0,0.242,0.198,0.44,0.44,0.44h10.129c0.242,0,0.44-0.198,0.44-0.44v-2.643
	C22.797,17.493,22.599,17.295,22.357,17.295z M35.096,9.368H12.263c-0.261,0-0.475,0.198-0.475,0.44v2.642
	c0,0.243,0.214,0.44,0.475,0.44h22.833c0.262,0,0.472-0.197,0.472-0.44V9.808C35.567,9.566,35.357,9.368,35.096,9.368z"/>
</svg>
