<?xml version="1.0" encoding="utf-8"?> 
<svg version="1.1"  xmlns="http://www.w3.org/2000/svg" xmlns:xlink="http://www.w3.org/1999/xlink" x="0px" y="0px"
	 width="50px" height="50px" viewBox="0 0 50 50" enable-background="new 0 0 50 50" xml:space="preserve" fill="#000000">
<path fill="#010101" d="M36.88,12.325c0.959,0,1.783-0.316,2.458-0.95c0.655-0.579,1.027-1.413,1.02-2.287
	c0.008-0.874-0.364-1.709-1.02-2.287c-0.663-0.626-1.546-0.967-2.458-0.95c-0.96,0-1.776,0.319-2.455,0.95
	c-0.654,0.578-1.026,1.413-1.019,2.287c0,0.891,0.339,1.656,1.019,2.287C35.104,12.009,35.924,12.325,36.88,12.325z M21.239,39.293
	c-0.96,0-1.772-0.309-2.445-0.936L5.433,25.946c-0.641-0.592-1.004-1.425-1.004-2.297c0-0.891,0.336-1.652,1.004-2.276L24.88,3.301
	c0.668-0.641,1.58-1.183,2.743-1.632C28.63,1.254,29.705,1.027,30.795,1h11.297c0.941,0,1.755,0.319,2.443,0.96
	c0.686,0.641,1.033,1.399,1.033,2.277v10.512c0,0.892-0.24,1.875-0.721,2.956c-0.479,1.08-1.063,1.937-1.748,2.578L23.708,38.354
	c-0.677,0.612-1.56,0.946-2.472,0.936L21.239,39.293z M21.239,49c-0.96,0-1.772-0.309-2.445-0.936L5.433,35.651
	c-0.641-0.591-1.004-1.424-1.004-2.297c0-0.606,0.126-1.103,0.377-1.494c0.35-0.495,0.761-0.945,1.224-1.337l12.764,11.881
	c0.672,0.622,1.485,0.935,2.445,0.935c0.939,0,1.766-0.313,2.469-0.935L43.1,24.332c0.686-0.641,1.271-1.502,1.752-2.578
	c0.479-1.081,0.72-2.064,0.72-2.959v5.661c0,0.891-0.24,1.879-0.72,2.958c-0.48,1.08-1.063,1.938-1.749,2.579L23.711,48.064
	C23.034,48.676,22.151,49.011,21.239,49z"/>
</svg>
